<?xml version="1.0"?>
<svg version="1.1" xmlns="http://www.w3.org/2000/svg" width="400" height="200" style=""><path fill="#92a38c" d="M15.4541015625,124.287109375q-1.5380859375,0-2.6806640625-0.322265625l0-3.779296875q1.171875,0.29296875,2.138671875,0.29296875q1.494140625,0,2.138671875-0.93017578125t0.64453125-2.90771484375l0-20.068359375l4.541015625,0l0,20.0390625q0,3.75-1.7138671875,5.712890625t-5.068359375,1.962890625z M32.897021484375,109.7705078125q0,2.431640625,0.79833984375,3.6767578125t2.60009765625,1.2451171875q1.787109375,0,2.57080078125-1.23779296875t0.78369140625-3.68408203125q0-2.431640625-0.791015625-3.6474609375t-2.5927734375-1.2158203125q-1.787109375,0-2.578125,1.20849609375t-0.791015625,3.65478515625z M44.220263671875,109.7705078125q0,3.9990234375-2.109375,6.2548828125t-5.8740234375,2.255859375q-2.3583984375,0-4.16015625-1.03271484375t-2.7685546875-2.96630859375t-0.966796875-4.51171875q0-4.013671875,2.0947265625-6.240234375t5.888671875-2.2265625q2.3583984375,0,4.16015625,1.025390625t2.7685546875,2.9443359375t0.966796875,4.4970703125z M59.11435546875,101.3037109375q0.908203125,0,1.5087890625,0.1318359375l-0.3369140625,4.189453125q-0.5419921875-0.146484375-1.318359375-0.146484375q-2.138671875,0-3.33251953125,1.0986328125t-1.19384765625,3.076171875l0,8.3349609375l-4.4677734375,0l0-16.376953125l3.3837890625,0l0.6591796875,2.75390625l0.2197265625,0q0.76171875-1.376953125,2.05810546875-2.21923828125t2.81982421875-0.84228515625z M70.844384765625,118.28125q-2.8857421875,0-4.53369140625-2.2412109375t-1.64794921875-6.2109375q0-4.0283203125,1.67724609375-6.27685546875t4.62158203125-2.24853515625q3.0908203125,0,4.716796875,2.40234375l0.146484375,0q-0.3369140625-1.8310546875-0.3369140625-3.2666015625l0-5.244140625l4.482421875,0l0,22.79296875l-3.427734375,0l-0.8642578125-2.1240234375l-0.1904296875,0q-1.5234375,2.4169921875-4.6435546875,2.4169921875z M72.411767578125,114.7216796875q1.7138671875,0,2.51220703125-0.99609375t0.87158203125-3.3837890625l0-0.4833984375q0-2.63671875-0.81298828125-3.779296875t-2.64404296875-1.142578125q-1.494140625,0-2.32177734375,1.26708984375t-0.82763671875,3.68408203125t0.8349609375,3.62548828125t2.3876953125,1.20849609375z M97.1056640625,117.98828125l-0.8642578125-2.2265625l-0.1171875,0q-1.1279296875,1.4208984375-2.32177734375,1.97021484375t-3.11279296875,0.54931640625q-2.3583984375,0-3.71337890625-1.34765625t-1.35498046875-3.837890625q0-2.607421875,1.82373046875-3.84521484375t5.50048828125-1.36962890625l2.841796875-0.087890625l0-0.7177734375q0-2.490234375-2.548828125-2.490234375q-1.962890625,0-4.6142578125,1.1865234375l-1.4794921875-3.017578125q2.8271484375-1.4794921875,6.26953125-1.4794921875q3.2958984375,0,5.0537109375,1.435546875t1.7578125,4.365234375l0,10.9130859375l-3.1201171875,0z M95.7873046875,110.400390625l-1.728515625,0.05859375q-1.9482421875,0.05859375-2.900390625,0.703125t-0.9521484375,1.962890625q0,1.8896484375,2.16796875,1.8896484375q1.552734375,0,2.48291015625-0.8935546875t0.93017578125-2.373046875l0-1.34765625z M122.00463867188,117.98828125l-4.4677734375,0l0-9.5654296875q0-1.7724609375-0.6298828125-2.65869140625t-2.0068359375-0.88623046875q-1.875,0-2.7099609375,1.25244140625t-0.8349609375,4.15283203125l0,7.705078125l-4.4677734375,0l0-16.376953125l3.4130859375,0l0.6005859375,2.0947265625l0.2490234375,0q0.7470703125-1.1865234375,2.05810546875-1.79443359375t2.98095703125-0.60791015625q2.8564453125,0,4.3359375,1.54541015625t1.4794921875,4.46044921875l0,10.6787109375z"/><path fill="#83a38a" d="M161.42172851563,117.98828125l-4.5263671875,0l0-9.2431640625l-8.4814453125,0l0,9.2431640625l-4.541015625,0l0-21.416015625l4.541015625,0l0,8.3935546875l8.4814453125,0l0-8.3935546875l4.5263671875,0l0,21.416015625z M178.937890625,117.98828125l-0.8642578125-2.2265625l-0.1171875,0q-1.1279296875,1.4208984375-2.32177734375,1.97021484375t-3.11279296875,0.54931640625q-2.3583984375,0-3.71337890625-1.34765625t-1.35498046875-3.837890625q0-2.607421875,1.82373046875-3.84521484375t5.50048828125-1.36962890625l2.841796875-0.087890625l0-0.7177734375q0-2.490234375-2.548828125-2.490234375q-1.962890625,0-4.6142578125,1.1865234375l-1.4794921875-3.017578125q2.8271484375-1.4794921875,6.26953125-1.4794921875q3.2958984375,0,5.0537109375,1.435546875t1.7578125,4.365234375l0,10.9130859375l-3.1201171875,0z M177.61953125,110.400390625l-1.728515625,0.05859375q-1.9482421875,0.05859375-2.900390625,0.703125t-0.9521484375,1.962890625q0,1.8896484375,2.16796875,1.8896484375q1.552734375,0,2.48291015625-0.8935546875t0.93017578125-2.373046875l0-1.34765625z M197.86030273438,101.3037109375q0.908203125,0,1.5087890625,0.1318359375l-0.3369140625,4.189453125q-0.5419921875-0.146484375-1.318359375-0.146484375q-2.138671875,0-3.33251953125,1.0986328125t-1.19384765625,3.076171875l0,8.3349609375l-4.4677734375,0l0-16.376953125l3.3837890625,0l0.6591796875,2.75390625l0.2197265625,0q0.76171875-1.376953125,2.05810546875-2.21923828125t2.81982421875-0.84228515625z M213.39892578125,118.28125q-2.8857421875,0-4.5263671875-2.0947265625l-0.234375,0q0.234375,2.05078125,0.234375,2.373046875l0,6.6357421875l-4.4677734375,0l0-23.583984375l3.6328125,0l0.6298828125,2.1240234375l0.205078125,0q1.5673828125-2.431640625,4.6435546875-2.431640625q2.900390625,0,4.541015625,2.2412109375t1.640625,6.2255859375q0,2.6220703125-0.76904296875,4.5556640625t-2.18994140625,2.9443359375t-3.33984375,1.0107421875z M212.08056640625,104.8779296875q-1.6552734375,0-2.4169921875,1.01806640625t-0.791015625,3.36181640625l0,0.4833984375q0,2.63671875,0.78369140625,3.779296875t2.48291015625,1.142578125q3.0029296875,0,3.0029296875-4.951171875q0-2.4169921875-0.73974609375-3.62548828125t-2.32177734375-1.20849609375z M232.23344726562,104.482421875q-1.4208984375,0-2.2265625,0.90087890625t-0.9228515625,2.55615234375l6.26953125,0q-0.029296875-1.6552734375-0.8642578125-2.55615234375t-2.255859375-0.90087890625z M232.86333007812,118.28125q-3.955078125,0-6.181640625-2.1826171875t-2.2265625-6.181640625q0-4.1162109375,2.05810546875-6.36474609375t5.69091796875-2.24853515625q3.4716796875,0,5.4052734375,1.9775390625t1.93359375,5.4638671875l0,2.16796875l-10.5615234375,0q0.0732421875,1.904296875,1.1279296875,2.9736328125t2.958984375,1.0693359375q1.4794921875,0,2.7978515625-0.3076171875t2.75390625-0.9814453125l0,3.45703125q-1.171875,0.5859375-2.5048828125,0.87158203125t-3.251953125,0.28564453125z M254.37851562501,101.3037109375q0.908203125,0,1.5087890625,0.1318359375l-0.3369140625,4.189453125q-0.5419921875-0.146484375-1.318359375-0.146484375q-2.138671875,0-3.33251953125,1.0986328125t-1.19384765625,3.076171875l0,8.3349609375l-4.4677734375,0l0-16.376953125l3.3837890625,0l0.6591796875,2.75390625l0.2197265625,0q0.76171875-1.376953125,2.05810546875-2.21923828125t2.81982421875-0.84228515625z"/></svg>
